<?xml version="1.0" encoding="UTF-8" standalone="no"?>
<!-- Created with Inkscape (http://www.inkscape.org/) -->

<svg
   width="181.81009mm"
   height="153.83701mm"
   viewBox="0 0 181.81009 153.83701"
   version="1.1"
   id="svg1"
   xml:space="preserve"
   xmlns="http://www.w3.org/2000/svg"
   xmlns:svg="http://www.w3.org/2000/svg"><defs
     id="defs1" /><g
     id="layer2"
     transform="translate(-2575.3597,-554.4616)"><path
       id="rect94"
       style="fill:#000000;stroke-width:1.01208;stroke-linecap:round;stroke-dasharray:24.2898, 24.2898"
       d="m 2646.7857,554.47107 c -3.0986,0.12265 -6.1501,1.4323 -8.4305,3.90053 l -59.6397,64.55317 c -1.2825,1.38814 -2.1667,2.99361 -2.6851,4.68137 -0.056,0.16102 -0.1006,0.32495 -0.1499,0.48782 -0.01,0.0316 -0.019,0.0625 -0.027,0.094 -1.1615,3.95309 -0.2835,8.38879 2.727,11.64735 l 59.6398,64.55317 c 4.5607,4.93659 12.2066,5.23884 17.1431,0.67799 4.9365,-4.5607 5.2393,-12.20655 0.6785,-17.14314 l -41.0316,-44.41175 h 130.0277 c 6.7209,0 12.1316,-5.41068 12.1316,-12.13156 0,-6.72089 -5.4107,-12.13156 -12.1316,-12.13156 h -129.8933 l 41.0316,-44.41176 c 4.5608,-4.93655 4.2585,-12.58233 -0.678,-17.14314 -2.4683,-2.28038 -5.614,-3.34513 -8.7127,-3.22254 z" /></g></svg>
