<?xml version="1.0" encoding="UTF-8" standalone="no"?>
<!-- Created with Inkscape (http://www.inkscape.org/) -->

<svg
   width="84.094604mm"
   height="105.67937mm"
   viewBox="0 0 84.094604 105.67937"
   version="1.1"
   id="svg1"
   xml:space="preserve"
   xmlns="http://www.w3.org/2000/svg"
   xmlns:svg="http://www.w3.org/2000/svg"><defs
     id="defs1" /><g
     id="layer2"
     transform="translate(-2473.7589,-308.4111)"><g
       id="g154"
       transform="rotate(-41.141382,2358.6615,500.20958)"><path
         id="circle146"
         style="fill:#999999;fill-opacity:1;stroke-width:0.934;stroke-linecap:round;stroke-dasharray:22.416, 22.416"
         d="m 2423.8634,447.25022 a 40.977703,40.977703 0 0 0 -40.9773,40.97734 40.977703,40.977703 0 0 0 40.9773,40.97786 40.977703,40.977703 0 0 0 40.9779,-40.97786 40.977703,40.977703 0 0 0 -40.9779,-40.97734 z m -2.4965,86.48154 c -0.7078,0 -1.2779,0.57009 -1.2779,1.27796 v 20.35638 h -1.6175 c -2.6884,0 -4.8524,2.16405 -4.8524,4.85242 v 38.82088 c 0,2.68837 2.164,4.85294 4.8524,4.85294 h 10.7838 c 2.6884,0 4.8525,-2.16457 4.8525,-4.85294 v -38.82088 c 0,-2.68837 -2.1641,-4.85242 -4.8525,-4.85242 h -1.6174 v -20.35638 c 0,-0.70787 -0.5701,-1.27796 -1.278,-1.27796 z" /><circle
         style="fill:#ffffff;fill-opacity:1;stroke-width:0.768891;stroke-linecap:round;stroke-dasharray:18.4534, 18.4534"
         id="circle154"
         cx="2423.8635"
         cy="488.22775"
         r="33.733799" /></g><path
       id="path16"
       style="fill:#999999;fill-opacity:1;stroke-width:0.934;stroke-linecap:round;stroke-dasharray:22.416, 22.416"
       d="m 2526.5987,308.4111 a 52.839668,52.839668 0 0 0 -52.8397,52.83967 52.839668,52.839668 0 0 0 52.8397,52.83967 52.839668,52.839668 0 0 0 31.2549,-10.39989 52.839668,52.839668 0 0 1 -50.6651,-52.68412 52.839668,52.839668 0 0 1 21.7175,-42.53901 52.839668,52.839668 0 0 0 -2.3073,-0.0563 z" /></g></svg>
